# This file uses centimeters as units for non-parametric coordinates.

g default
v -0.269502 0.927091 -0.016330
v -0.008645 0.998712 -0.041570
v -0.306063 0.576347 -0.233668
v 0.208936 0.787777 -0.222008
v 0.068866 0.660495 -0.307181
v -0.221176 0.943352 0.324738
v 0.200500 0.808319 0.374714
v -0.000788 0.994457 0.183130
v -0.312223 0.616316 0.417115
v 0.194026 0.636856 0.455881
v 0.335321 0.387616 0.401755
v 0.385015 0.635843 0.285840
v 0.385570 0.631942 0.067082
v 0.320137 0.361123 -0.188390
v 0.000000 0.000000 0.000000
vt 0.000000 0.000000
vt 1.000000 0.000000
vt 0.000000 0.000000
vt 1.000000 0.000000
vt 0.000000 1.000000
vt 0.000000 0.000000
vt 1.000000 0.000000
vt 0.000000 0.000000
vt 1.000000 0.000000
vt 1.000000 0.000000
vt 1.000000 1.000000
vt 0.000000 1.000000
vt 1.000000 1.000000
vt -0.002317 0.999933
vt 0.999908 0.999952
vt 0.000000 1.000000
vt 1.000000 1.000000
vt 0.164481 1.294981
vt 1.000000 0.000000
vt 0.000000 0.000000
vt 1.000000 0.000000
vt 1.000000 1.000000
vt 0.000000 1.000000
vt 0.000000 0.000000
vt 1.000000 0.500000
vt 0.500000 0.000000
vt 1.000000 1.000000
vt 0.000000 0.000000
vt 0.000000 1.000000
vt -0.052065 1.028757
vt 0.000000 0.000000
vt 1.000000 0.000000
vt 1.000000 1.000000
vt 0.000000 1.000000
vt 0.000000 0.000000
vt 1.000000 1.000000
vt 0.000000 1.000000
vt 0.000000 0.000000
vt 1.000000 0.000000
vt 1.000000 1.000000
vt 0.000000 1.000000
vt 0.000000 0.000000
vt 1.000000 0.000000
vt 1.000000 1.000000
vt 0.000000 1.000000
vt 1.599391 -10.490772
vt 0.999071 -0.000085
vt 0.000000 0.000000
vt 1.017350 0.000000
vt 0.000000 0.000000
vt 1.000000 0.000000
vt 1.000000 1.000000
vn -0.219303 0.558924 -0.799693
vn -0.219303 0.558925 -0.799693
vn -0.219303 0.558925 -0.799693
vn -0.219303 0.558925 -0.799693
vn -0.219303 0.558924 -0.799693
vn -0.081156 -0.425717 -0.901210
vn -0.081156 -0.425717 -0.901210
vn -0.081156 -0.425717 -0.901209
vn -0.983286 0.179296 0.031637
vn -0.983286 0.179296 0.031637
vn -0.983286 0.179296 0.031637
vn -0.983286 0.179296 0.031637
vn 0.014858 0.475640 0.879515
vn 0.054736 0.492413 0.868639
vn 0.054736 0.492413 0.868639
vn 0.035834 0.484579 0.874013
vn 0.760469 0.148393 -0.632192
vn 0.760469 0.148393 -0.632192
vn 0.760468 0.148393 -0.632192
vn 0.760469 0.148393 -0.632192
vn 0.644103 0.252816 0.721952
vn 0.644103 0.252816 0.721952
vn 0.644103 0.252816 0.721952
vn 0.644103 0.252816 0.721952
vn -0.245856 0.969299 0.003844
vn -0.245856 0.969299 0.003844
vn -0.245856 0.969299 0.003844
vn -0.245856 0.969299 0.003844
vn -0.170660 -0.538625 0.825081
vn -0.170660 -0.538625 0.825081
vn -0.170660 -0.538625 0.825081
vn -0.170660 -0.538625 0.825081
vn 0.976772 -0.214066 -0.009623
vn 0.976772 -0.214066 -0.009623
vn 0.976772 -0.214066 -0.009623
vn 0.976772 -0.214066 -0.009623
vn 0.677011 0.735828 -0.014592
vn 0.677011 0.735828 -0.014592
vn 0.677011 0.735828 -0.014592
vn 0.677011 0.735828 -0.014592
vn 0.688101 0.725482 -0.013899
vn 0.688101 0.725482 -0.013899
vn 0.688101 0.725482 -0.013899
vn 0.688101 0.725482 -0.013899
vn 0.750922 -0.660310 0.010322
vn 0.750922 -0.660310 0.010322
vn 0.750922 -0.660310 0.010322
vn -0.886355 -0.462573 0.020019
vn -0.886355 -0.462573 0.020019
vn -0.886355 -0.462573 0.020019
vn -0.074605 -0.408448 -0.909728
vn -0.074605 -0.408448 -0.909728
vn -0.074605 -0.408448 -0.909728
vn -0.086258 0.428922 0.899214
s off
g polySurface1
f 1/1/1 2/2/2 4/5/3 5/3/4 3/4/5
f 3/6/6 5/7/7 14/52/8
f 6/8/9 1/9/10 3/13/11 9/14/12
s 1
f 7/10/13 8/11/14 6/12/15 9/18/16
s off
f 5/17/17 4/36/18 13/37/19 14/35/20
f 10/20/21 11/21/22 12/22/23 7/23/24
f 1/24/25 6/25/26 8/26/27 2/27/28
f 11/29/29 10/28/30 9/30/31 15/46/32
f 14/31/33 13/32/34 12/33/35 11/34/36
f 12/38/37 13/39/38 4/40/39 7/41/40
f 2/42/41 8/43/42 7/44/43 4/45/44
f 11/51/45 15/49/46 14/50/47
f 3/16/48 15/47/49 9/15/50
f 15/47/51 3/16/52 14/48/53
s 1
f 7/10/13 9/18/16 10/19/54
